<svg width="26" height="25" viewBox="0 0 26 25" fill="none" xmlns="http://www.w3.org/2000/svg">
<g clip-path="url(#clip0)">
<path d="M25.5 12.5C25.5 5.5957 19.9043 0 13 0C6.0957 0 0.5 5.5957 0.5 12.5C0.5 19.4043 6.0957 25 13 25C13.0732 25 13.1465 25 13.2197 24.9951V15.2686H10.5342V12.1387H13.2197V9.83398C13.2197 7.16309 14.8506 5.70801 17.2334 5.70801C18.376 5.70801 19.3574 5.79102 19.6406 5.83008V8.62305H18C16.7061 8.62305 16.4521 9.23828 16.4521 10.1416V12.1338H19.5527L19.1475 15.2637H16.4521V24.5166C21.6768 23.0176 25.5 18.208 25.5 12.5Z" fill="#112D57"/>
</g>
<defs>
<clipPath id="clip0">
<rect width="25" height="25" fill="white" transform="translate(0.5)"/>
</clipPath>
</defs>
</svg>
