<svg width="26" height="25" viewBox="0 0 26 25" fill="none" xmlns="http://www.w3.org/2000/svg">
<g clip-path="url(#clip0)">
<path d="M15.3926 12.5C15.3926 13.8214 14.3214 14.8926 13 14.8926C11.6786 14.8926 10.6074 13.8214 10.6074 12.5C10.6074 11.1786 11.6786 10.1074 13 10.1074C14.3214 10.1074 15.3926 11.1786 15.3926 12.5Z" fill="#112D57"/>
<path d="M18.5954 8.26691C18.4804 7.95525 18.2969 7.67316 18.0585 7.4416C17.827 7.20319 17.5451 7.0197 17.2332 6.90469C16.9803 6.80646 16.6003 6.68954 15.9005 6.65768C15.1435 6.62316 14.9165 6.61572 13 6.61572C11.0833 6.61572 10.8564 6.62297 10.0995 6.65749C9.39972 6.68954 9.01958 6.80646 8.76686 6.90469C8.45501 7.0197 8.17291 7.20319 7.94155 7.4416C7.70313 7.67316 7.51965 7.95506 7.40444 8.26691C7.30621 8.51983 7.18929 8.89996 7.15744 9.59977C7.12292 10.3566 7.11548 10.5836 7.11548 12.5003C7.11548 14.4168 7.12292 14.6438 7.15744 15.4008C7.18929 16.1006 7.30621 16.4805 7.40444 16.7334C7.51965 17.0453 7.70294 17.3272 7.94136 17.5588C8.17291 17.7972 8.45482 17.9807 8.76667 18.0957C9.01958 18.1941 9.39972 18.311 10.0995 18.3429C10.8564 18.3774 11.0831 18.3846 12.9998 18.3846C14.9167 18.3846 15.1437 18.3774 15.9003 18.3429C16.6002 18.311 16.9803 18.1941 17.2332 18.0957C17.8592 17.8542 18.354 17.3594 18.5954 16.7334C18.6937 16.4805 18.8106 16.1006 18.8426 15.4008C18.8771 14.6438 18.8844 14.4168 18.8844 12.5003C18.8844 10.5836 18.8771 10.3566 18.8426 9.59977C18.8108 8.89996 18.6938 8.51983 18.5954 8.26691ZM13 16.1858C10.9643 16.1858 9.31408 14.5358 9.31408 12.5001C9.31408 10.4644 10.9643 8.81432 13 8.81432C15.0356 8.81432 16.6858 10.4644 16.6858 12.5001C16.6858 14.5358 15.0356 16.1858 13 16.1858ZM16.8315 9.52996C16.3558 9.52996 15.9702 9.14429 15.9702 8.6686C15.9702 8.19291 16.3558 7.80724 16.8315 7.80724C17.3072 7.80724 17.6929 8.19291 17.6929 8.6686C17.6927 9.14429 17.3072 9.52996 16.8315 9.52996Z" fill="#112D57"/>
<path d="M13 0C6.0975 0 0.5 5.5975 0.5 12.5C0.5 19.4025 6.0975 25 13 25C19.9025 25 25.5 19.4025 25.5 12.5C25.5 5.5975 19.9025 0 13 0ZM20.1344 15.4593C20.0997 16.2233 19.9782 16.745 19.8008 17.2016C19.428 18.1658 18.6658 18.928 17.7016 19.3008C17.2452 19.4782 16.7233 19.5995 15.9594 19.6344C15.194 19.6693 14.9495 19.6777 13.0002 19.6777C11.0507 19.6777 10.8064 19.6693 10.0407 19.6344C9.27686 19.5995 8.755 19.4782 8.29858 19.3008C7.81945 19.1206 7.38572 18.8381 7.02714 18.4729C6.66207 18.1145 6.37959 17.6805 6.19935 17.2016C6.02197 16.7452 5.90047 16.2233 5.86575 15.4594C5.83047 14.6938 5.82227 14.4493 5.82227 12.5C5.82227 10.5507 5.83047 10.3062 5.86556 9.54075C5.90028 8.77666 6.02158 8.255 6.19897 7.79839C6.37921 7.31945 6.66188 6.88553 7.02714 6.52714C7.38553 6.16188 7.81945 5.8794 8.29839 5.69916C8.755 5.52177 9.27666 5.40047 10.0407 5.36556C10.8062 5.33066 11.0507 5.32227 13 5.32227C14.9493 5.32227 15.1938 5.33066 15.9593 5.36575C16.7233 5.40047 17.245 5.52177 17.7016 5.69897C18.1805 5.87921 18.6145 6.16188 18.9731 6.52714C19.3381 6.88572 19.6208 7.31945 19.8008 7.79839C19.9784 8.255 20.0997 8.77666 20.1346 9.54075C20.1695 10.3062 20.1777 10.5507 20.1777 12.5C20.1777 14.4493 20.1695 14.6938 20.1344 15.4593Z" fill="#112D57"/>
</g>
<defs>
<clipPath id="clip0">
<rect width="25" height="25" fill="white" transform="translate(0.5)"/>
</clipPath>
</defs>
</svg>
