<svg width="21" height="20" viewBox="0 0 21 20" fill="none" xmlns="http://www.w3.org/2000/svg">
<path d="M20.4951 20V19.9992H20.5001V12.6642C20.5001 9.07582 19.7276 6.31165 15.5326 6.31165C13.5159 6.31165 12.1626 7.41831 11.6101 8.46748H11.5517V6.64665H7.57422V19.9992H11.7159V13.3875C11.7159 11.6467 12.0459 9.96332 14.2017 9.96332C16.3259 9.96332 16.3576 11.95 16.3576 13.4992V20H20.4951Z" fill="white"/>
<path d="M0.830078 6.64746H4.97675V20H0.830078V6.64746Z" fill="white"/>
<path d="M2.90167 0C1.57583 0 0.5 1.07583 0.5 2.40167C0.5 3.7275 1.57583 4.82583 2.90167 4.82583C4.2275 4.82583 5.30333 3.7275 5.30333 2.40167C5.3025 1.07583 4.22667 0 2.90167 0V0Z" fill="white"/>
</svg>
