<svg width="20" height="16" viewBox="0 0 20 16" fill="none" xmlns="http://www.w3.org/2000/svg">
<path d="M6.5154 15.5086C13.5912 15.5086 17.4607 9.64645 17.4607 4.56325C17.4607 4.39676 17.4573 4.23096 17.4498 4.06607C18.2009 3.52302 18.8537 2.84535 19.3687 2.074C18.6795 2.3805 17.9376 2.58655 17.1596 2.67977C17.9538 2.20334 18.5636 1.44999 18.8511 0.551941C18.1079 0.992597 17.2847 1.31274 16.4084 1.48566C15.7065 0.737927 14.7069 0.270325 13.6003 0.270325C11.476 0.270325 9.75318 1.99305 9.75318 4.11664C9.75318 4.41866 9.78701 4.7122 9.85294 4.99382C6.65575 4.83295 3.82055 3.30229 1.92342 0.974595C1.59319 1.54299 1.40261 2.20346 1.40261 2.90819C1.40261 4.24265 2.08177 5.42106 3.11444 6.1102C2.48333 6.09082 1.89051 5.91756 1.37223 5.62918C1.37166 5.64535 1.37166 5.66105 1.37166 5.67825C1.37166 7.54133 2.69764 9.09687 4.45808 9.44935C4.13473 9.53729 3.79452 9.58465 3.44365 9.58465C3.1962 9.58465 2.95494 9.56034 2.72057 9.51528C3.2103 11.0438 4.63054 12.156 6.31427 12.1872C4.99758 13.2192 3.33896 13.8339 1.53631 13.8339C1.22626 13.8339 0.919762 13.8161 0.618652 13.7806C2.32119 14.8718 4.34285 15.5087 6.51551 15.5087" fill="white"/>
</svg>
