<svg width="26" height="25" viewBox="0 0 26 25" fill="none" xmlns="http://www.w3.org/2000/svg">
<g clip-path="url(#clip0)">
<path d="M13 0C6.0975 0 0.5 5.5975 0.5 12.5C0.5 19.4025 6.0975 25 13 25C19.9025 25 25.5 19.4025 25.5 12.5C25.5 5.5975 19.9025 0 13 0ZM18.7074 9.74617C18.7129 9.86919 18.7156 9.99279 18.7156 10.117C18.7156 13.9082 15.8297 18.28 10.5523 18.2802H10.5525H10.5523C8.93201 18.2802 7.42425 17.8053 6.15453 16.9914C6.37902 17.0179 6.60752 17.0311 6.83888 17.0311C8.18318 17.0311 9.42029 16.5726 10.4024 15.803C9.14639 15.7797 8.08743 14.9502 7.72198 13.8102C7.89689 13.8437 8.07675 13.862 8.26119 13.862C8.52307 13.862 8.77675 13.8268 9.01784 13.7609C7.70501 13.4981 6.71605 12.3379 6.71605 10.9486C6.71605 10.9356 6.71605 10.924 6.71643 10.9119C7.10305 11.1269 7.54517 11.2562 8.01591 11.2707C7.24553 10.7567 6.73913 9.87797 6.73913 8.88252C6.73913 8.35686 6.88123 7.86438 7.12766 7.44038C8.54253 9.17645 10.657 10.3182 13.0416 10.4382C12.9924 10.228 12.967 10.009 12.967 9.78394C12.967 8.20007 14.252 6.91509 15.8364 6.91509C16.6617 6.91509 17.4071 7.26395 17.9307 7.82166C18.5843 7.69272 19.1981 7.45392 19.7526 7.12528C19.538 7.79495 19.0833 8.35686 18.4909 8.7122C19.0713 8.64277 19.6244 8.48885 20.1384 8.26035C19.7545 8.83579 19.2675 9.34124 18.7074 9.74617Z" fill="#112D57"/>
</g>
<defs>
<clipPath id="clip0">
<rect width="25" height="25" fill="white" transform="translate(0.5)"/>
</clipPath>
</defs>
</svg>
