<svg width="19" height="20" viewBox="0 0 19 20" fill="none" xmlns="http://www.w3.org/2000/svg">
<path fill-rule="evenodd" clip-rule="evenodd" d="M16.1324 3.34007C14.3783 1.58386 12.0454 0.616264 9.56008 0.615234C4.43885 0.615234 0.270912 4.78306 0.268852 9.90566C0.268166 11.5432 0.695946 13.1417 1.50905 14.5507L0.190918 19.3652L5.11634 18.0732C6.4735 18.8135 8.0014 19.2036 9.5563 19.2041H9.5602C14.6809 19.2041 18.8493 15.0359 18.8512 9.9131C18.8522 7.43042 17.8867 5.09617 16.1324 3.34007ZM9.56008 17.635H9.55688C8.17123 17.6344 6.81224 17.262 5.6264 16.5586L5.34454 16.3911L2.42171 17.1579L3.20186 14.3082L3.01818 14.016C2.24513 12.7865 1.83692 11.3654 1.83761 9.90623C1.83921 5.64846 5.30357 2.18445 9.56317 2.18445C11.6259 2.18513 13.5648 2.98943 15.0228 4.44912C16.4808 5.90881 17.2832 7.84904 17.2826 9.91253C17.2807 14.1706 13.8166 17.635 9.56008 17.635ZM13.796 11.8513C13.5639 11.735 12.4225 11.1736 12.2096 11.096C11.997 11.0185 11.842 10.9799 11.6874 11.2122C11.5326 11.4445 11.0878 11.9675 10.9523 12.1224C10.8168 12.2773 10.6815 12.2968 10.4493 12.1805C10.2171 12.0644 9.4691 11.8191 8.5823 11.0282C7.89222 10.4126 7.42633 9.6524 7.29083 9.42009C7.15556 9.18754 7.28969 9.07402 7.39268 8.9463C7.644 8.63422 7.89565 8.30704 7.97301 8.1522C8.05049 7.99724 8.0117 7.86163 7.95356 7.74547C7.89565 7.62932 7.43137 6.48662 7.23796 6.02165C7.04936 5.56915 6.85813 5.63026 6.71554 5.62317C6.58027 5.61642 6.42543 5.61504 6.27059 5.61504C6.11587 5.61504 5.86433 5.67306 5.65147 5.90561C5.43872 6.13804 4.83905 6.6996 4.83905 7.84229C4.83905 8.98498 5.67092 10.0889 5.78696 10.2438C5.90301 10.3988 7.42404 12.7437 9.7528 13.7492C10.3067 13.9886 10.7391 14.1313 11.0763 14.2383C11.6325 14.415 12.1384 14.39 12.5385 14.3303C12.9846 14.2636 13.9119 13.7686 14.1056 13.2264C14.299 12.6841 14.299 12.2193 14.2408 12.1224C14.1829 12.0256 14.0281 11.9675 13.796 11.8513Z" fill="white"/>
</svg>