<svg width="179" height="36" viewBox="0 0 179 36" fill="none" xmlns="http://www.w3.org/2000/svg">
<path d="M28.512 1.736V8.12H18.48V35H10.992V8.12H0.96V1.736H28.512ZM43.0684 1.352C48.0604 1.352 51.8844 2.248 54.5404 4.04C57.1964 5.8 58.5244 8.552 58.5244 12.296C58.5244 14.632 57.9804 16.536 56.8924 18.008C55.8364 19.448 54.3004 20.584 52.2844 21.416C52.9564 22.248 53.6604 23.208 54.3964 24.296C55.1324 25.352 55.8524 26.472 56.5564 27.656C57.2924 28.808 57.9964 30.024 58.6684 31.304C59.3404 32.552 59.9644 33.784 60.5404 35H52.1404C51.5324 33.912 50.9084 32.808 50.2684 31.688C49.6604 30.568 49.0204 29.48 48.3484 28.424C47.7084 27.368 47.0684 26.376 46.4284 25.448C45.7884 24.488 45.1484 23.624 44.5084 22.856H40.8124V35H33.3244V2.216C34.9564 1.896 36.6364 1.672 38.3644 1.544C40.1244 1.416 41.6924 1.352 43.0684 1.352ZM43.5004 7.736C42.9564 7.736 42.4604 7.752 42.0124 7.784C41.5964 7.816 41.1964 7.848 40.8124 7.88V16.904H42.9244C45.7404 16.904 47.7564 16.552 48.9724 15.848C50.1884 15.144 50.7964 13.944 50.7964 12.248C50.7964 10.616 50.1724 9.464 48.9244 8.792C47.7084 8.088 45.9004 7.736 43.5004 7.736ZM70.7843 18.344C70.7843 19.976 70.9763 21.448 71.3603 22.76C71.7763 24.072 72.3523 25.208 73.0883 26.168C73.8563 27.096 74.7843 27.816 75.8723 28.328C76.9603 28.84 78.2083 29.096 79.6163 29.096C80.9923 29.096 82.2243 28.84 83.3123 28.328C84.4323 27.816 85.3603 27.096 86.0963 26.168C86.8643 25.208 87.4403 24.072 87.8243 22.76C88.2403 21.448 88.4483 19.976 88.4483 18.344C88.4483 16.712 88.2403 15.24 87.8243 13.928C87.4403 12.584 86.8643 11.448 86.0963 10.52C85.3603 9.56 84.4323 8.824 83.3123 8.312C82.2243 7.8 80.9923 7.544 79.6163 7.544C78.2083 7.544 76.9603 7.816 75.8723 8.36C74.7843 8.872 73.8563 9.608 73.0883 10.568C72.3523 11.496 71.7763 12.632 71.3603 13.976C70.9763 15.288 70.7843 16.744 70.7843 18.344ZM96.1763 18.344C96.1763 21.192 95.7443 23.704 94.8803 25.88C94.0483 28.024 92.8963 29.832 91.4243 31.304C89.9523 32.744 88.1923 33.832 86.1443 34.568C84.1283 35.304 81.9523 35.672 79.6163 35.672C77.3443 35.672 75.2003 35.304 73.1843 34.568C71.1683 33.832 69.4083 32.744 67.9043 31.304C66.4003 29.832 65.2163 28.024 64.3523 25.88C63.4883 23.704 63.0563 21.192 63.0563 18.344C63.0563 15.496 63.5043 13 64.4003 10.856C65.2963 8.68 66.4963 6.856 68.0003 5.384C69.5363 3.912 71.2963 2.808 73.2803 2.072C75.2963 1.336 77.4083 0.967998 79.6163 0.967998C81.8883 0.967998 84.0323 1.336 86.0483 2.072C88.0643 2.808 89.8243 3.912 91.3283 5.384C92.8323 6.856 94.0163 8.68 94.8803 10.856C95.7443 13 96.1763 15.496 96.1763 18.344ZM112.402 1.352C117.362 1.352 121.17 2.232 123.826 3.992C126.482 5.72 127.81 8.568 127.81 12.536C127.81 16.536 126.466 19.432 123.778 21.224C121.09 22.984 117.25 23.864 112.258 23.864H109.906V35H102.418V2.216C104.05 1.896 105.778 1.672 107.602 1.544C109.426 1.416 111.026 1.352 112.402 1.352ZM112.882 7.736C112.338 7.736 111.794 7.752 111.25 7.784C110.738 7.816 110.29 7.848 109.906 7.88V17.48H112.258C114.85 17.48 116.802 17.128 118.114 16.424C119.426 15.72 120.082 14.408 120.082 12.488C120.082 11.56 119.906 10.792 119.554 10.184C119.234 9.576 118.754 9.096 118.114 8.744C117.506 8.36 116.754 8.104 115.858 7.976C114.962 7.816 113.97 7.736 112.882 7.736ZM133.309 1.736H140.797V35H133.309V1.736ZM170.768 35C170.416 33.848 170.016 32.664 169.568 31.448C169.152 30.232 168.736 29.016 168.32 27.8H155.36C154.944 29.016 154.512 30.232 154.064 31.448C153.648 32.664 153.264 33.848 152.912 35H145.136C146.384 31.416 147.568 28.104 148.688 25.064C149.808 22.024 150.896 19.16 151.952 16.472C153.04 13.784 154.096 11.24 155.12 8.84C156.176 6.408 157.264 4.04 158.384 1.736H165.536C166.624 4.04 167.696 6.408 168.752 8.84C169.808 11.24 170.864 13.784 171.92 16.472C173.008 19.16 174.112 22.024 175.232 25.064C176.352 28.104 177.536 31.416 178.784 35H170.768ZM161.792 9.272C161.632 9.752 161.392 10.408 161.072 11.24C160.752 12.072 160.384 13.032 159.968 14.12C159.552 15.208 159.088 16.408 158.576 17.72C158.096 19.032 157.6 20.408 157.088 21.848H166.544C166.032 20.408 165.536 19.032 165.056 17.72C164.576 16.408 164.112 15.208 163.664 14.12C163.248 13.032 162.88 12.072 162.56 11.24C162.24 10.408 161.984 9.752 161.792 9.272Z" fill="black"/>
</svg>
