<svg enable-background="new 0 0 36 36" height="512" viewBox="0 0 36 36" width="512" xmlns="http://www.w3.org/2000/svg"><path d="m26.982 3.914c-6.916.129-11.732-3.365-15.065-3.302s-10.296 2.109-10.009 17.44 9.744 17.404 13.41 17.336c17.164-.321 23.911-31.703 11.664-31.474z" fill="#efefef"/><g fill="#a4afc1"><path d="m4.556 26.217h1v2h-1z" transform="matrix(.707 -.707 .707 .707 -17.762 11.543)"/><path d="m8.621 30.283h1v2h-1z" transform="matrix(.707 -.707 .707 .707 -19.446 15.607)"/><path d="m3.879 30.783h2v1h-2z" transform="matrix(.707 -.707 .707 .707 -20.691 12.613)"/><path d="m7.944 26.717h2v1h-2z" transform="matrix(.707 -.707 .707 .707 -16.626 14.296)"/></g><path d="m25.25 10.75v2h-18.5v-2c0-1.1.9-2 2-2h14.5c1.1 0 2 .9 2 2z" fill="#2fdf84"/><path d="m25.25 12.75-.001 9.5c0 1.104-.896 2-2 2h-14.499c-1.1 0-2-.9-2-2v-9.5z" fill="#f3f3f1"/><path d="m11 8.75h-2.25c-1.1 0-2 .9-2 2v2h2.25v-2c0-1.1.9-2 2-2z" fill="#00b871"/><path d="m9 22.25v-9.5h-2.25v9.5c0 1.1.9 2 2 2h2.25c-1.1 0-2-.9-2-2z" fill="#d5dbe1"/><circle cx="23.5" cy="23.5" fill="#2fdf84" r="5.75"/><path d="m20 23.5c0-2.79 1.988-5.115 4.625-5.638-.364-.072-.74-.112-1.125-.112-3.176 0-5.75 2.574-5.75 5.75s2.574 5.75 5.75 5.75c.385 0 .761-.039 1.125-.112-2.637-.523-4.625-2.848-4.625-5.638z" fill="#00b871"/><path d="m14.5 25h-5.75c-1.517 0-2.75-1.233-2.75-2.75v-11.5c0-1.517 1.233-2.75 2.75-2.75h14.5c1.517 0 2.75 1.233 2.75 2.75v4h-1.5v-4c0-.689-.561-1.25-1.25-1.25h-14.5c-.689 0-1.25.561-1.25 1.25v11.5c0 .689.561 1.25 1.25 1.25h5.75z"/><path d="m6.75 12h18.5v1.5h-18.5z"/><path d="m10 6.75h1.5v4h-1.5z"/><path d="m20.5 6.75h1.5v4h-1.5z"/><path d="m23.5 30c-3.584 0-6.5-2.916-6.5-6.5s2.916-6.5 6.5-6.5 6.5 2.916 6.5 6.5-2.916 6.5-6.5 6.5zm0-11.5c-2.757 0-5 2.243-5 5s2.243 5 5 5 5-2.243 5-5-2.243-5-5-5z"/><path d="m22.75 20.75h1.5v5.5h-1.5z"/><path d="m20.75 22.75h5.5v1.5h-5.5z"/></svg>