<svg id="line" enable-background="new 0 0 36 36" height="512" viewBox="0 0 36 36" width="512" xmlns="http://www.w3.org/2000/svg"><g><path d="m4.167 8.377c0 6.917-3.583 11.667-3.583 15s1.916 10.333 17.249 10.333 17.583-9.417 17.583-13.083c.001-17.167-31.249-24.5-31.249-12.25z" fill="#efefef"/></g><g><path d="m24 34.5c-.827 0-1.5-.673-1.5-1.5s.673-1.5 1.5-1.5 1.5.673 1.5 1.5-.673 1.5-1.5 1.5zm0-2c-.276 0-.5.225-.5.5s.224.5.5.5.5-.225.5-.5-.224-.5-.5-.5z" fill="#a4afc1"/></g><g><path d="m21.75 13.5c0-2.362-2.184-4.214-4.643-3.647-1.386.32-2.495 1.47-2.778 2.864-.329 1.621.391 3.094 1.599 3.893.532.352.821.975.821 1.613v1.285c0 .488.258.741.577.741h1.346c.319 0 .577-.258.577-.577v-1.425c0-.644.281-1.281.818-1.636 1.013-.667 1.683-1.807 1.683-3.111z" fill="#f3f3f1"/></g><g><path d="m27.25 6.75h-18.5c-1.1 0-2 .9-2 2v13.5c0 1.1.9 2 2 2h2v5l5-5h11.5c1.1 0 2-.9 2-2v-13.5c0-1.1-.9-2-2-2zm-7.182 9.862c-.537.355-.818.992-.818 1.636v1.425c0 .319-.258.577-.577.577h-1.346c-.319 0-.577-.253-.577-.741v-1.285c0-.638-.289-1.261-.821-1.613-1.208-.8-1.928-2.272-1.599-3.893.283-1.394 1.392-2.544 2.778-2.864 2.459-.567 4.643 1.285 4.643 3.647-.001 1.303-.671 2.443-1.683 3.111z" fill="#2fdf84"/></g><g><path d="m13 27v-2.75h-2c-1.1 0-2-.9-2-2v-13.5c0-1.1.9-2 2-2h-2.25c-1.1 0-2 .9-2 2v13.5c0 1.1.9 2 2 2h2v5z" fill="#00b871"/></g><g><path d="m19 19.509v-1.285c0-.638-.289-1.261-.821-1.613-1.208-.8-1.928-2.272-1.599-3.893.265-1.305 1.257-2.387 2.519-2.783-.614-.189-1.287-.243-1.991-.081-1.386.32-2.495 1.47-2.778 2.864-.329 1.621.391 3.094 1.599 3.893.532.352.821.975.821 1.613v1.285c0 .488.258.741.577.741h1.346c.195 0 .358-.103.463-.25-.081-.122-.136-.28-.136-.491z" fill="#d5dbe1"/></g><g><path d="m10.75 30c-.097 0-.194-.019-.287-.057-.28-.116-.463-.389-.463-.693v-4.25h-1.25c-1.517 0-2.75-1.233-2.75-2.75v-13.5c0-1.517 1.233-2.75 2.75-2.75h18.5c1.517 0 2.75 1.233 2.75 2.75v3.25h-1.5v-3.25c0-.689-.561-1.25-1.25-1.25h-18.5c-.689 0-1.25.561-1.25 1.25v13.5c0 .689.561 1.25 1.25 1.25h2c.414 0 .75.336.75.75v3.189l3.72-3.72c.141-.141.332-.22.53-.22h11.5c.689 0 1.25-.561 1.25-1.25v-8.249h1.5v8.25c0 1.517-1.233 2.75-2.75 2.75h-11.189l-4.78 4.78c-.144.144-.336.22-.531.22z"/></g><g><path d="m18.673 21h-1.346c-.66 0-1.327-.513-1.327-1.491v-1.285c0-.411-.186-.79-.485-.988-1.535-1.016-2.289-2.848-1.92-4.668.34-1.678 1.684-3.063 3.344-3.444 1.373-.319 2.78-.006 3.861.854s1.7 2.145 1.7 3.523c0 1.507-.755 2.904-2.019 3.738-.297.195-.481.582-.481 1.009v1.425c0 .731-.595 1.327-1.327 1.327zm-1.173-1.5h1v-1.252c0-.939.432-1.784 1.155-2.262.842-.555 1.345-1.485 1.345-2.486 0-.92-.413-1.775-1.134-2.349s-1.664-.778-2.59-.567c-1.097.253-1.986 1.17-2.211 2.282-.25 1.236.239 2.431 1.278 3.119.725.479 1.157 1.316 1.157 2.238z"/></g><g><path d="m2 28.5h32v1.5h-32z"/></g></svg>