<svg id="LINE" enable-background="new 0 0 36 36" height="512" viewBox="0 0 36 36" width="512" xmlns="http://www.w3.org/2000/svg"><g><path d="m27.417 3.914c-6.915.129-11.732-3.365-15.064-3.302s-10.296 2.109-10.009 17.44 9.744 17.404 13.41 17.336c17.163-.321 23.911-31.703 11.663-31.474z" fill="#efefef"/></g><g><path d="m3.335 9.3c-.827 0-1.5-.673-1.5-1.5s.673-1.5 1.5-1.5 1.5.673 1.5 1.5-.672 1.5-1.5 1.5zm0-2c-.276 0-.5.225-.5.5s.224.5.5.5.5-.225.5-.5-.224-.5-.5-.5z" fill="#a4afc1"/></g><g><path d="m24.623.15h1v2h-1z" fill="#a4afc1"/></g><g><path d="m24.623 5.9h1v2h-1z" fill="#a4afc1"/></g><g><path d="m21.123 3.4h2v1h-2z" fill="#a4afc1"/></g><g><path d="m26.873 3.4h2v1h-2z" fill="#a4afc1"/></g><g><path d="m16.87 11.25 3.4-2.72c.74-.59.32-1.78-.62-1.78h-9.3c-.94 0-1.36 1.19-.62 1.78l3.4 2.72z" fill="#f2c94c"/></g><g><path d="m21.693 17.008.002-.008c-.046-.098-.097-.192-.145-.289-.07-.144-.141-.286-.214-.428-.076-.146-.154-.289-.234-.432-.078-.14-.157-.279-.238-.416-.082-.139-.166-.276-.252-.412-.085-.135-.172-.267-.26-.398s-.177-.26-.268-.387c-.093-.129-.188-.254-.283-.379-.092-.12-.184-.24-.279-.355-.101-.123-.204-.239-.307-.356-.095-.108-.19-.217-.287-.32-.11-.116-.222-.223-.335-.332-.095-.092-.189-.188-.286-.275-.125-.112-.253-.213-.381-.315-.089-.071-.175-.148-.265-.215-.183-.136-.369-.257-.556-.371-.036-.022-.07-.05-.106-.071h-.001-3.998-.001c-.036.021-.07.049-.106.071-.187.115-.374.236-.556.371-.09.066-.177.143-.265.215-.128.103-.256.203-.381.315-.097.087-.191.183-.286.275-.112.109-.225.216-.334.331-.098.103-.192.212-.288.32-.103.117-.206.233-.306.355-.095.116-.188.236-.28.357-.095.124-.19.249-.282.378-.091.126-.179.255-.267.386-.089.132-.176.265-.262.4-.085.135-.168.271-.25.409s-.161.278-.24.419c-.079.142-.156.284-.232.428-.074.143-.145.287-.216.432-.047.098-.099.192-.144.289l.003.008c-.967 2.073-1.557 4.323-1.557 6.242 0 3 1.5 6 5 6h.999 4.501.999c3.5 0 5-3 5-6 0-1.919-.59-4.169-1.556-6.242z" fill="#f3f3f1"/></g><g><circle cx="24.993" cy="22" fill="#f2c94c" r="3.25"/></g><g><path d="m22.813 24.42-2.063 3.51 1.613-.101.713 1.421 1.922-3.264z" fill="#f3f3f1"/></g><g><path d="m27.181 24.409 2.069 3.521-1.613-.101-.717 1.421-1.922-3.264-.439-.76z" fill="#f3f3f1"/></g><g><path d="m23.743 22c0-1.444.948-2.653 2.25-3.077-.317-.103-.649-.173-1-.173-1.795 0-3.25 1.455-3.25 3.25s1.455 3.25 3.25 3.25c.351 0 .683-.07 1-.173-1.302-.424-2.25-1.633-2.25-3.077z" fill="#F2994A"/></g><g><path d="m8.75 23.25c0-1.919.59-4.169 1.557-6.242l-.003-.008c.045-.097.097-.191.144-.287.071-.145.142-.289.216-.432.075-.144.153-.286.232-.428.079-.141.158-.281.24-.419s.165-.274.25-.409c.086-.136.173-.269.262-.4.088-.131.176-.259.267-.386.092-.129.187-.253.282-.378.093-.121.185-.241.28-.357.1-.122.203-.238.306-.355.095-.108.19-.217.288-.32.11-.116.222-.223.334-.331.095-.092.189-.188.286-.275.125-.112.253-.213.381-.315.089-.071.175-.148.265-.215.183-.136.369-.257.556-.371.036-.022.07-.05.106-.071h-1.999-.001c-.036.021-.07.049-.106.071-.187.115-.374.236-.556.371-.09.066-.177.143-.265.215-.128.103-.256.203-.381.315-.097.087-.191.183-.286.275-.112.109-.225.216-.334.331-.098.103-.192.212-.288.32-.103.117-.206.233-.306.355-.095.116-.188.236-.28.357-.095.124-.19.249-.282.378-.091.126-.179.255-.267.386-.089.132-.176.265-.262.4-.085.135-.168.271-.25.409s-.161.278-.24.419c-.079.142-.156.284-.232.428-.074.143-.145.287-.216.432-.047.096-.099.19-.144.287l.003.008c-.967 2.073-1.557 4.323-1.557 6.242 0 3 1.5 6 5 6h.999 1.001c-3.5 0-5-3-5-6z" fill="#d5dbe1"/></g><g><path d="m12.35 6.75h-2c-.94 0-1.36 1.19-.62 1.78l3.4 2.72h2l-3.4-2.72c-.74-.59-.32-1.78.62-1.78z" fill="#F2994A"/></g><g><path d="m17.338 11.836-.937-1.172 3.4-2.72c.115-.092.107-.201.08-.277-.026-.076-.088-.167-.231-.167h-9.3c-.144 0-.206.091-.232.167-.027.076-.035.186.08.277l3.4 2.72-.937 1.172-3.4-2.72c-.589-.47-.809-1.233-.56-1.944.25-.712.897-1.172 1.649-1.172h9.3c.752 0 1.399.46 1.648 1.172.249.711.029 1.475-.56 1.944z"/></g><g><path d="m9.75 10.5h10.5v1.5h-10.5z"/></g><g><path d="m21.016 17.317c-1.161-2.487-2.763-4.463-4.395-5.421l.759-1.293c1.889 1.107 3.709 3.323 4.996 6.079z"/></g><g><path d="m17.25 30h-5.5c-3.972 0-5.75-3.391-5.75-6.75 0-4.668 3.094-10.577 6.621-12.646l.759 1.293c-3.078 1.805-5.88 7.217-5.88 11.353 0 2.422 1.113 5.25 4.25 5.25h5.5z"/></g><g><path d="m24.993 26c-2.206 0-4-1.794-4-4s1.794-4 4-4 4 1.794 4 4-1.795 4-4 4zm0-6.5c-1.378 0-2.5 1.121-2.5 2.5s1.122 2.5 2.5 2.5 2.5-1.121 2.5-2.5-1.122-2.5-2.5-2.5z"/></g><g><path d="m23.076 30c-.008 0-.017 0-.025 0-.274-.01-.522-.168-.645-.414l-.49-.978-1.118.07c-.284.024-.541-.119-.687-.355-.145-.236-.148-.533-.007-.772l2.063-3.511 1.293.76-1.348 2.294.205-.013c.296-.039.583.144.717.412l.095.188 1.223-2.076 1.293.762-1.922 3.264c-.136.229-.382.369-.647.369z"/></g><g><path d="m26.92 30c-.265 0-.511-.14-.646-.369l-2.365-4.03 1.3-.75 1.66 2.835.098-.194c.135-.269.42-.455.716-.41l.205.013-1.354-2.306 1.293-.76 2.069 3.522c.141.239.138.536-.008.772-.145.236-.399.396-.686.355l-1.119-.07-.494.979c-.124.245-.371.402-.645.412-.008.001-.016.001-.024.001z"/></g></svg>