<svg enable-background="new 0 0 36 36" height="512" viewBox="0 0 36 36" width="512" xmlns="http://www.w3.org/2000/svg"><path d="m34.904 20.355c-3.782-5.791-3.38-11.727-5.203-14.518s-7.256-7.603-20.093.782-9.572 17.5-7.566 20.569c9.388 14.372 39.561 3.423 32.862-6.833z" fill="#efefef"/><g fill="#a4afc1"><path d="m31.076 30.033h1v2h-1z" transform="matrix(.707 -.707 .707 .707 -12.695 31.424)"/><path d="m26.333 30.533h2v1h-2z" transform="matrix(.707 -.707 .707 .707 -13.938 28.417)"/><path d="m30.399 26.467h2v1h-2z" transform="matrix(.707 -.707 .707 .707 -9.872 30.101)"/></g><path d="m15 26.25c0 1.66 1.34 3 3 3s3-1.34 3-3z" fill="#2fdf84"/><path d="m24.25 16v2.788c0 2.196.967 4.28 2.644 5.697l.001.001.005.004c.21.18.35.45.35.76 0 .55-.45 1-1 1h-8-8.5c-.55 0-1-.45-1-1 0-.31.14-.58.35-.76l.005-.004.001-.001c1.677-1.417 2.644-3.502 2.644-5.697v-2.788c0-3.452 2.798-6.25 6.25-6.25s6.25 2.798 6.25 6.25z" fill="#f3f3f1"/><path d="m11 25.25c0-.31.14-.58.35-.76l.005-.004.001-.001c1.677-1.417 2.644-3.502 2.644-5.697v-2.788c0-3.067 2.211-5.613 5.125-6.144-.365-.066-.74-.106-1.125-.106-3.452 0-6.25 2.798-6.25 6.25v2.788c0 2.196-.967 4.28-2.644 5.697l-.001.001-.005.004c-.21.18-.35.45-.35.76 0 .55.45 1 1 1h2.25c-.55 0-1-.45-1-1z" fill="#d5dbe1"/><path d="m5 6.5c-.827 0-1.5-.673-1.5-1.5s.673-1.5 1.5-1.5 1.5.673 1.5 1.5-.673 1.5-1.5 1.5zm0-2c-.276 0-.5.224-.5.5s.224.5.5.5.5-.224.5-.5-.224-.5-.5-.5z" fill="#a4afc1"/><path d="m29 16h-1.5c0-2.871-1.118-5.571-3.148-7.601l1.061-1.061c2.312 2.314 3.587 5.39 3.587 8.662z"/><path d="m8.5 16h-1.5c0-3.272 1.274-6.348 3.588-8.662l1.061 1.061c-2.031 2.03-3.149 4.729-3.149 7.601z"/><path d="m18 30c-2.068 0-3.75-1.682-3.75-3.75h1.5c0 1.241 1.009 2.25 2.25 2.25s2.25-1.009 2.25-2.25h1.5c0 2.068-1.682 3.75-3.75 3.75z"/><path d="m26.25 27h-16.5c-.965 0-1.75-.785-1.75-1.75 0-.512.223-.997.612-1.33 1.521-1.285 2.388-3.153 2.388-5.132v-2.788c0-3.86 3.14-7 7-7s7 3.14 7 7v2.788c0 1.979.867 3.847 2.378 5.125.399.34.622.825.622 1.337 0 .965-.785 1.75-1.75 1.75zm-8.25-16.5c-3.033 0-5.5 2.467-5.5 5.5v2.788c0 2.421-1.061 4.707-2.91 6.27-.035.03-.09.092-.09.192 0 .136.114.25.25.25h16.5c.136 0 .25-.114.25-.25 0-.1-.055-.162-.088-.19-1.851-1.565-2.912-3.851-2.912-6.272v-2.788c0-3.033-2.467-5.5-5.5-5.5z"/><path d="m17.25 6.75h1.5v3h-1.5z"/></svg>