<svg width="61" height="56" viewBox="0 0 61 56" fill="none" xmlns="http://www.w3.org/2000/svg">
<path d="M2.0994 56C2.78559 56 3.34186 55.4437 3.34186 54.7575C3.34186 54.0713 2.78559 53.5151 2.0994 53.5151C1.4132 53.5151 0.856934 54.0713 0.856934 54.7575C0.856934 55.4437 1.4132 56 2.0994 56Z" fill="#DE6944"/>
<path d="M2.0994 45.2621C2.78559 45.2621 3.34186 44.7058 3.34186 44.0196C3.34186 43.3334 2.78559 42.7771 2.0994 42.7771C1.4132 42.7771 0.856934 43.3334 0.856934 44.0196C0.856934 44.7058 1.4132 45.2621 2.0994 45.2621Z" fill="#DE6944"/>
<path d="M2.0994 34.5229C2.78559 34.5229 3.34186 33.9666 3.34186 33.2804C3.34186 32.5942 2.78559 32.0379 2.0994 32.0379C1.4132 32.0379 0.856934 32.5942 0.856934 33.2804C0.856934 33.9666 1.4132 34.5229 2.0994 34.5229Z" fill="#DE6944"/>
<path d="M2.0994 23.8731C2.78559 23.8731 3.34186 23.3169 3.34186 22.6307C3.34186 21.9445 2.78559 21.3882 2.0994 21.3882C1.4132 21.3882 0.856934 21.9445 0.856934 22.6307C0.856934 23.3169 1.4132 23.8731 2.0994 23.8731Z" fill="#DE6944"/>
<path d="M2.0994 13.1352C2.78559 13.1352 3.34186 12.579 3.34186 11.8928C3.34186 11.2066 2.78559 10.6503 2.0994 10.6503C1.4132 10.6503 0.856934 11.2066 0.856934 11.8928C0.856934 12.579 1.4132 13.1352 2.0994 13.1352Z" fill="#DE6944"/>
<path d="M2.10086 2.48575C2.78706 2.48575 3.34333 1.92948 3.34333 1.24329C3.34333 0.557094 2.78706 0.000823975 2.10086 0.000823975C1.41467 0.000823975 0.858398 0.557094 0.858398 1.24329C0.858398 1.92948 1.41467 2.48575 2.10086 2.48575Z" fill="#DE6944"/>
<path d="M59.6096 55.9992C60.2958 55.9992 60.8521 55.4429 60.8521 54.7567C60.8521 54.0706 60.2958 53.5143 59.6096 53.5143C58.9235 53.5143 58.3672 54.0706 58.3672 54.7567C58.3672 55.4429 58.9235 55.9992 59.6096 55.9992Z" fill="#DE6944"/>
<path d="M59.6096 45.2613C60.2958 45.2613 60.8521 44.705 60.8521 44.0188C60.8521 43.3326 60.2958 42.7763 59.6096 42.7763C58.9235 42.7763 58.3672 43.3326 58.3672 44.0188C58.3672 44.705 58.9235 45.2613 59.6096 45.2613Z" fill="#DE6944"/>
<path d="M59.6096 34.5221C60.2958 34.5221 60.8521 33.9658 60.8521 33.2796C60.8521 32.5934 60.2958 32.0371 59.6096 32.0371C58.9235 32.0371 58.3672 32.5934 58.3672 33.2796C58.3672 33.9658 58.9235 34.5221 59.6096 34.5221Z" fill="#DE6944"/>
<path d="M59.6096 23.8724C60.2958 23.8724 60.8521 23.3161 60.8521 22.6299C60.8521 21.9437 60.2958 21.3874 59.6096 21.3874C58.9235 21.3874 58.3672 21.9437 58.3672 22.6299C58.3672 23.3161 58.9235 23.8724 59.6096 23.8724Z" fill="#DE6944"/>
<path d="M59.6096 13.1344C60.2958 13.1344 60.8521 12.5781 60.8521 11.892C60.8521 11.2058 60.2958 10.6495 59.6096 10.6495C58.9235 10.6495 58.3672 11.2058 58.3672 11.892C58.3672 12.5781 58.9235 13.1344 59.6096 13.1344Z" fill="#DE6944"/>
<path d="M59.6099 2.48493C60.2961 2.48493 60.8524 1.92866 60.8524 1.24246C60.8524 0.55627 60.2961 0 59.6099 0C58.9237 0 58.3674 0.55627 58.3674 1.24246C58.3674 1.92866 58.9237 2.48493 59.6099 2.48493Z" fill="#DE6944"/>
<path d="M48.1612 55.9992C48.8474 55.9992 49.4036 55.4429 49.4036 54.7567C49.4036 54.0706 48.8474 53.5143 48.1612 53.5143C47.475 53.5143 46.9187 54.0706 46.9187 54.7567C46.9187 55.4429 47.475 55.9992 48.1612 55.9992Z" fill="#DE6944"/>
<path d="M48.1612 45.2613C48.8474 45.2613 49.4036 44.705 49.4036 44.0188C49.4036 43.3326 48.8474 42.7763 48.1612 42.7763C47.475 42.7763 46.9187 43.3326 46.9187 44.0188C46.9187 44.705 47.475 45.2613 48.1612 45.2613Z" fill="#DE6944"/>
<path d="M48.1612 34.5221C48.8474 34.5221 49.4036 33.9658 49.4036 33.2796C49.4036 32.5934 48.8474 32.0371 48.1612 32.0371C47.475 32.0371 46.9187 32.5934 46.9187 33.2796C46.9187 33.9658 47.475 34.5221 48.1612 34.5221Z" fill="#DE6944"/>
<path d="M48.1612 23.8724C48.8474 23.8724 49.4036 23.3161 49.4036 22.6299C49.4036 21.9437 48.8474 21.3874 48.1612 21.3874C47.475 21.3874 46.9187 21.9437 46.9187 22.6299C46.9187 23.3161 47.475 23.8724 48.1612 23.8724Z" fill="#DE6944"/>
<path d="M48.1612 13.1344C48.8474 13.1344 49.4036 12.5781 49.4036 11.892C49.4036 11.2058 48.8474 10.6495 48.1612 10.6495C47.475 10.6495 46.9187 11.2058 46.9187 11.892C46.9187 12.5781 47.475 13.1344 48.1612 13.1344Z" fill="#DE6944"/>
<path d="M48.1607 2.48493C48.8469 2.48493 49.4031 1.92866 49.4031 1.24246C49.4031 0.55627 48.8469 0 48.1607 0C47.4745 0 46.9182 0.55627 46.9182 1.24246C46.9182 1.92866 47.4745 2.48493 48.1607 2.48493Z" fill="#DE6944"/>
<path d="M36.6241 55.9992C37.3102 55.9992 37.8665 55.4429 37.8665 54.7567C37.8665 54.0706 37.3102 53.5143 36.6241 53.5143C35.9379 53.5143 35.3816 54.0706 35.3816 54.7567C35.3816 55.4429 35.9379 55.9992 36.6241 55.9992Z" fill="#DE6944"/>
<path d="M36.6241 45.2613C37.3102 45.2613 37.8665 44.705 37.8665 44.0188C37.8665 43.3326 37.3102 42.7763 36.6241 42.7763C35.9379 42.7763 35.3816 43.3326 35.3816 44.0188C35.3816 44.705 35.9379 45.2613 36.6241 45.2613Z" fill="#DE6944"/>
<path d="M36.6241 34.5221C37.3102 34.5221 37.8665 33.9658 37.8665 33.2796C37.8665 32.5934 37.3102 32.0371 36.6241 32.0371C35.9379 32.0371 35.3816 32.5934 35.3816 33.2796C35.3816 33.9658 35.9379 34.5221 36.6241 34.5221Z" fill="#DE6944"/>
<path d="M36.6241 23.8724C37.3102 23.8724 37.8665 23.3161 37.8665 22.6299C37.8665 21.9437 37.3102 21.3874 36.6241 21.3874C35.9379 21.3874 35.3816 21.9437 35.3816 22.6299C35.3816 23.3161 35.9379 23.8724 36.6241 23.8724Z" fill="#DE6944"/>
<path d="M36.6241 13.1344C37.3102 13.1344 37.8665 12.5781 37.8665 11.892C37.8665 11.2058 37.3102 10.6495 36.6241 10.6495C35.9379 10.6495 35.3816 11.2058 35.3816 11.892C35.3816 12.5781 35.9379 13.1344 36.6241 13.1344Z" fill="#DE6944"/>
<path d="M36.6236 2.48493C37.3098 2.48493 37.866 1.92866 37.866 1.24246C37.866 0.55627 37.3098 0 36.6236 0C35.9374 0 35.3811 0.55627 35.3811 1.24246C35.3811 1.92866 35.9374 2.48493 36.6236 2.48493Z" fill="#DE6944"/>
<path d="M25.0867 55.9992C25.7729 55.9992 26.3292 55.4429 26.3292 54.7567C26.3292 54.0706 25.7729 53.5143 25.0867 53.5143C24.4005 53.5143 23.8442 54.0706 23.8442 54.7567C23.8442 55.4429 24.4005 55.9992 25.0867 55.9992Z" fill="#DE6944"/>
<path d="M25.0867 45.2613C25.7729 45.2613 26.3292 44.705 26.3292 44.0188C26.3292 43.3326 25.7729 42.7763 25.0867 42.7763C24.4005 42.7763 23.8442 43.3326 23.8442 44.0188C23.8442 44.705 24.4005 45.2613 25.0867 45.2613Z" fill="#DE6944"/>
<path d="M25.0867 34.5221C25.7729 34.5221 26.3292 33.9658 26.3292 33.2796C26.3292 32.5934 25.7729 32.0371 25.0867 32.0371C24.4005 32.0371 23.8442 32.5934 23.8442 33.2796C23.8442 33.9658 24.4005 34.5221 25.0867 34.5221Z" fill="#DE6944"/>
<path d="M25.0867 23.8724C25.7729 23.8724 26.3292 23.3161 26.3292 22.6299C26.3292 21.9437 25.7729 21.3874 25.0867 21.3874C24.4005 21.3874 23.8442 21.9437 23.8442 22.6299C23.8442 23.3161 24.4005 23.8724 25.0867 23.8724Z" fill="#DE6944"/>
<path d="M25.0867 13.1344C25.7729 13.1344 26.3292 12.5781 26.3292 11.892C26.3292 11.2058 25.7729 10.6495 25.0867 10.6495C24.4005 10.6495 23.8442 11.2058 23.8442 11.892C23.8442 12.5781 24.4005 13.1344 25.0867 13.1344Z" fill="#DE6944"/>
<path d="M25.0862 2.48493C25.7724 2.48493 26.3287 1.92866 26.3287 1.24246C26.3287 0.55627 25.7724 0 25.0862 0C24.4 0 23.8438 0.55627 23.8438 1.24246C23.8438 1.92866 24.4 2.48493 25.0862 2.48493Z" fill="#DE6944"/>
<path d="M13.5498 55.9992C14.236 55.9992 14.7923 55.4429 14.7923 54.7567C14.7923 54.0706 14.236 53.5143 13.5498 53.5143C12.8636 53.5143 12.3074 54.0706 12.3074 54.7567C12.3074 55.4429 12.8636 55.9992 13.5498 55.9992Z" fill="#DE6944"/>
<path d="M13.5498 45.2613C14.236 45.2613 14.7923 44.705 14.7923 44.0188C14.7923 43.3326 14.236 42.7763 13.5498 42.7763C12.8636 42.7763 12.3074 43.3326 12.3074 44.0188C12.3074 44.705 12.8636 45.2613 13.5498 45.2613Z" fill="#DE6944"/>
<path d="M13.5498 34.5221C14.236 34.5221 14.7923 33.9658 14.7923 33.2796C14.7923 32.5934 14.236 32.0371 13.5498 32.0371C12.8636 32.0371 12.3074 32.5934 12.3074 33.2796C12.3074 33.9658 12.8636 34.5221 13.5498 34.5221Z" fill="#DE6944"/>
<path d="M13.5498 23.8724C14.236 23.8724 14.7923 23.3161 14.7923 22.6299C14.7923 21.9437 14.236 21.3874 13.5498 21.3874C12.8636 21.3874 12.3074 21.9437 12.3074 22.6299C12.3074 23.3161 12.8636 23.8724 13.5498 23.8724Z" fill="#DE6944"/>
<path d="M13.5498 13.1344C14.236 13.1344 14.7923 12.5781 14.7923 11.892C14.7923 11.2058 14.236 10.6495 13.5498 10.6495C12.8636 10.6495 12.3074 11.2058 12.3074 11.892C12.3074 12.5781 12.8636 13.1344 13.5498 13.1344Z" fill="#DE6944"/>
<path d="M13.5491 2.48493C14.2353 2.48493 14.7916 1.92866 14.7916 1.24246C14.7916 0.55627 14.2353 0 13.5491 0C12.8629 0 12.3066 0.55627 12.3066 1.24246C12.3066 1.92866 12.8629 2.48493 13.5491 2.48493Z" fill="#DE6944"/>
</svg>
