<svg width="214" height="473" viewBox="0 0 214 473" fill="none" xmlns="http://www.w3.org/2000/svg">
<circle cx="210.24" cy="468.636" r="3.52358" transform="rotate(-180 210.24 468.636)" fill="white"/>
<circle cx="158.561" cy="468.636" r="3.52358" transform="rotate(-180 158.561 468.636)" fill="white"/>
<circle cx="106.882" cy="468.636" r="3.52358" transform="rotate(-180 106.882 468.636)" fill="white"/>
<circle cx="55.2027" cy="468.636" r="3.52358" transform="rotate(-180 55.2027 468.636)" fill="white"/>
<circle cx="3.52354" cy="468.636" r="3.52358" transform="rotate(-180 3.52354 468.636)" fill="white"/>
<circle cx="210.24" cy="416.957" r="3.52358" transform="rotate(-180 210.24 416.957)" fill="white"/>
<circle cx="158.561" cy="416.957" r="3.52358" transform="rotate(-180 158.561 416.957)" fill="white"/>
<circle cx="106.882" cy="416.957" r="3.52358" transform="rotate(-180 106.882 416.957)" fill="white"/>
<circle cx="55.2027" cy="416.957" r="3.52358" transform="rotate(-180 55.2027 416.957)" fill="white"/>
<circle cx="3.52354" cy="416.957" r="3.52358" transform="rotate(-180 3.52354 416.957)" fill="white"/>
<circle cx="210.24" cy="365.278" r="3.52358" transform="rotate(-180 210.24 365.278)" fill="white"/>
<circle cx="158.561" cy="365.278" r="3.52358" transform="rotate(-180 158.561 365.278)" fill="white"/>
<circle cx="106.882" cy="365.278" r="3.52358" transform="rotate(-180 106.882 365.278)" fill="white"/>
<circle cx="55.2027" cy="365.278" r="3.52358" transform="rotate(-180 55.2027 365.278)" fill="white"/>
<circle cx="3.52354" cy="365.278" r="3.52358" transform="rotate(-180 3.52354 365.278)" fill="white"/>
<circle cx="210.24" cy="313.599" r="3.52358" transform="rotate(-180 210.24 313.599)" fill="white"/>
<circle cx="158.561" cy="313.599" r="3.52358" transform="rotate(-180 158.561 313.599)" fill="white"/>
<circle cx="106.882" cy="313.6" r="3.52358" transform="rotate(-180 106.882 313.6)" fill="white"/>
<circle cx="55.2027" cy="313.601" r="3.52358" transform="rotate(-180 55.2027 313.601)" fill="white"/>
<circle cx="3.52354" cy="313.599" r="3.52358" transform="rotate(-180 3.52354 313.599)" fill="white"/>
<circle cx="210.24" cy="261.92" r="3.52358" transform="rotate(-180 210.24 261.92)" fill="white"/>
<circle cx="158.561" cy="261.92" r="3.52358" transform="rotate(-180 158.561 261.92)" fill="white"/>
<circle cx="106.882" cy="261.921" r="3.52358" transform="rotate(-180 106.882 261.921)" fill="white"/>
<circle cx="55.2027" cy="261.921" r="3.52358" transform="rotate(-180 55.2027 261.921)" fill="white"/>
<circle cx="3.52354" cy="261.92" r="3.52358" transform="rotate(-180 3.52354 261.92)" fill="white"/>
<circle cx="210.24" cy="210.242" r="3.52358" transform="rotate(-180 210.24 210.242)" fill="white"/>
<circle cx="158.561" cy="210.242" r="3.52358" transform="rotate(-180 158.561 210.242)" fill="white"/>
<circle cx="106.882" cy="210.242" r="3.52358" transform="rotate(-180 106.882 210.242)" fill="white"/>
<circle cx="55.2027" cy="210.242" r="3.52358" transform="rotate(-180 55.2027 210.242)" fill="white"/>
<circle cx="3.52354" cy="210.24" r="3.52358" transform="rotate(-180 3.52354 210.24)" fill="white"/>
<circle cx="210.24" cy="158.562" r="3.52358" transform="rotate(-180 210.24 158.562)" fill="white"/>
<circle cx="158.561" cy="158.563" r="3.52358" transform="rotate(-180 158.561 158.563)" fill="white"/>
<circle cx="106.882" cy="158.563" r="3.52358" transform="rotate(-180 106.882 158.563)" fill="white"/>
<circle cx="55.2027" cy="158.563" r="3.52358" transform="rotate(-180 55.2027 158.563)" fill="white"/>
<circle cx="3.52354" cy="158.561" r="3.52358" transform="rotate(-180 3.52354 158.561)" fill="white"/>
<circle cx="210.24" cy="106.883" r="3.52358" transform="rotate(-180 210.24 106.883)" fill="white"/>
<circle cx="158.561" cy="106.884" r="3.52358" transform="rotate(-180 158.561 106.884)" fill="white"/>
<circle cx="106.882" cy="106.884" r="3.52358" transform="rotate(-180 106.882 106.884)" fill="white"/>
<circle cx="55.2027" cy="106.883" r="3.52358" transform="rotate(-180 55.2027 106.883)" fill="white"/>
<circle cx="3.52354" cy="106.882" r="3.52358" transform="rotate(-180 3.52354 106.882)" fill="white"/>
<circle cx="210.24" cy="55.2028" r="3.52358" transform="rotate(-180 210.24 55.2028)" fill="#6C117B"/>
<circle cx="158.561" cy="55.2027" r="3.52358" transform="rotate(-180 158.561 55.2027)" fill="#6C117B"/>
<circle cx="106.882" cy="55.2027" r="3.52358" transform="rotate(-180 106.882 55.2027)" fill="#6C117B"/>
<circle cx="55.2027" cy="55.2028" r="3.52358" transform="rotate(-180 55.2027 55.2028)" fill="#6C117B"/>
<circle cx="3.52354" cy="55.2028" r="3.52358" transform="rotate(-180 3.52354 55.2028)" fill="#6C117B"/>
<circle cx="210.24" cy="3.5236" r="3.52358" transform="rotate(-180 210.24 3.5236)" fill="#6C117B"/>
<circle cx="158.561" cy="3.52354" r="3.52358" transform="rotate(-180 158.561 3.52354)" fill="#6C117B"/>
<circle cx="106.882" cy="3.52354" r="3.52358" transform="rotate(-180 106.882 3.52354)" fill="#6C117B"/>
<circle cx="55.2029" cy="3.5236" r="3.52358" transform="rotate(-180 55.2029 3.5236)" fill="#6C117B"/>
<circle cx="3.52354" cy="3.5236" r="3.52358" transform="rotate(-180 3.52354 3.5236)" fill="#6C117B"/>
</svg>
